<svg class="svg svg--custom" height="25pt" width="25pt" viewBox="0 -16 512 511" xmlns="http://www.w3.org/2000/svg"><path d="m313.605469 212.382812c4.140625 0 7.5-3.355468 7.5-7.5v-9.5625c0-4.140624-3.359375-7.5-7.5-7.5-4.144531 0-7.5 3.359376-7.5 7.5v9.5625c0 4.140626 3.355469 7.5 7.5 7.5zm-130.21875 172.667969h117.109375c8.785156 0 17.042968-3.421875 23.257812-9.632812l18.632813-18.636719c5.589843-5.589844 7.246093-13.921875 4.21875-21.226562-3.023438-7.300782-10.085938-12.023438-17.992188-12.023438h-117.109375c-8.785156 0-17.042968 3.421875-23.257812 9.632812l-18.632813 18.636719c-5.589843 5.589844-7.246093 13.921875-4.222656 21.226563 3.027344 7.304687 10.089844 12.023437 17.996094 12.023437zm-3.167969-22.640625 18.636719-18.636718c3.378906-3.378907 7.871093-5.238282 12.648437-5.238282h117.109375c2.699219 0 3.792969 1.933594 4.136719 2.765625.34375.828125.9375 2.96875-.96875 4.878907l-18.636719 18.632812c-3.378906 3.378906-7.871093 5.238281-12.648437 5.238281h-117.109375c-2.699219 0-3.792969-1.933593-4.136719-2.761719-.34375-.832031-.9375-2.972656.96875-4.878906zm236.664062-291.875h-53.851562c-9.875 0-17.910156 8.03125-17.910156 17.90625v15.570313c0 9.875 8.035156 17.910156 17.910156 17.910156h53.851562c9.875 0 17.90625-8.035156 17.90625-17.910156v-15.570313c0-9.875-8.03125-17.90625-17.90625-17.90625zm-34.425781 36.386719h-19.425781c-1.601562 0-2.910156-1.304687-2.910156-2.910156v-15.566407c0-1.605468 1.308594-2.910156 2.910156-2.910156h19.425781zm37.332031-2.910156c0 1.601562-1.304687 2.910156-2.90625 2.910156h-19.425781v-21.390625h19.425781c1.601563 0 2.90625 1.308594 2.90625 2.910156zm-181.898437-33.476563c-14.167969 0-25.695313 11.523438-25.695313 25.691406 0 14.167969 11.527344 25.695313 25.695313 25.695313 14.164063 0 25.691406-11.527344 25.691406-25.695313 0-14.167968-11.523437-25.691406-25.691406-25.691406zm0 36.386719c-5.898437 0-10.695313-4.796875-10.695313-10.695313 0-5.894531 4.796876-10.691406 10.695313-10.691406 5.894531 0 10.691406 4.796875 10.691406 10.691406 0 5.898438-4.796875 10.695313-10.691406 10.695313zm204.898437-106.421875h-373.578124c-38.164063 0-69.210938 31.046875-69.210938 69.210938v52.957031c0 4.144531 3.359375 7.5 7.5 7.5s7.5-3.355469 7.5-7.5v-22.390625c7.027344-.566406 13.835938-1.921875 20.335938-3.976563v257.984375c-6.5-2.050781-13.308594-3.40625-20.335938-3.972656v-192.804688c0-4.144531-3.359375-7.5-7.5-7.5s-7.5 3.355469-7.5 7.5v223.371094c0 38.164063 31.046875 69.210938 69.210938 69.210938h5.332031v8.78125c0 11.730468 9.542969 21.273437 21.273437 21.273437h35.144532c11.730468 0 21.273437-9.542969 21.273437-21.273437v-8.78125h207.53125v8.78125c0 11.730468 9.542969 21.273437 21.273437 21.273437h35.144532c11.730468 0 21.273437-9.542969 21.273437-21.273437v-8.78125h5.332031c8.3125 0 16.441407-1.460938 24.164063-4.339844 3.882813-1.445312 5.855469-5.765625 4.410156-9.644531-1.449219-3.882813-5.765625-5.859375-9.648437-4.410157-6.042969 2.253907-12.410156 3.394532-18.925782 3.394532h-15.503906c3.550782-36.800782 32.910156-66.164063 69.714844-69.710938v15.5c0 11.003906-3.277344 21.59375-9.472656 30.625-2.34375 3.417969-1.472656 8.085938 1.941406 10.429688 1.296875.890625 2.773438 1.316406 4.234375 1.316406 2.390625 0 4.738281-1.140625 6.191406-3.257812 7.921875-11.542969 12.105469-25.066407 12.105469-39.113282v-311.167968c0-38.164063-31.046875-69.210938-69.210938-69.210938zm-343.011718 15h312.445312c.566406 7.027344 1.921875 13.835938 3.976563 20.335938h-320.398438c2.054688-6.5 3.410157-13.308594 3.976563-20.335938zm-84.777344 69.710938v-15.5c0-29.894532 24.316406-54.210938 54.210938-54.210938h15.5c-3.546876 36.800781-32.910157 66.164062-69.710938 69.710938zm54.210938 349.878906c-29.894532 0-54.210938-24.316406-54.210938-54.210938v-15.5c36.800781 3.546875 66.164062 32.910156 69.710938 69.710938zm68.023437 23.78125c0 3.457031-2.8125 6.273437-6.273437 6.273437h-35.144532c-3.460937 0-6.273437-2.816406-6.273437-6.273437v-8.78125h47.691406zm-37.457031-23.78125c-.566406-7.027344-1.921875-13.835938-3.976563-20.335938h320.394531c-2.050781 6.5-3.40625 13.308594-3.972656 20.335938zm322.679687 23.78125c0 3.457031-2.8125 6.273437-6.273437 6.273437h-35.144532c-3.460937 0-6.273437-2.816406-6.273437-6.273437v-8.78125h47.691406zm39.207031-98.335938c-16.726562 8.765625-30.453124 22.492188-39.21875 39.21875h-332.890624c-8.765626-16.726562-22.496094-30.453125-39.21875-39.21875v-209.742187h411.324218v209.742187zm0-224.742187h-411.328124v-45.738281c16.726562-8.765626 30.453124-22.492188 39.21875-39.21875h332.890624c8.765626 16.726562 22.496094 30.453124 39.21875 39.21875zm35.335938 214.519531c-7.027344.566406-13.835938 1.921875-20.335938 3.972656v-257.984375c6.5 2.054688 13.308594 3.410157 20.335938 3.976563zm0-265.101562c-36.800781-3.546876-66.164062-32.910157-69.710938-69.710938h15.5c29.890626 0 54.210938 24.316406 54.210938 54.210938zm-298.605469 127.171874c4.140625 0 7.5-3.355468 7.5-7.5v-9.5625c0-4.140624-3.359375-7.5-7.5-7.5s-7.5 3.359376-7.5 7.5v9.5625c0 4.140626 3.359375 7.5 7.5 7.5zm57.605469 7.34375c7.988281 0 15.585938-3.460937 20.839844-9.492187 2.722656-3.125 2.398437-7.863281-.726563-10.582031-3.125-2.722656-7.859375-2.394532-10.582031.726562-2.40625 2.761719-5.878906 4.347656-9.53125 4.347656s-7.128906-1.585937-9.535156-4.347656c-2.722656-3.121094-7.457032-3.445312-10.582032-.726562-3.121093 2.722656-3.445312 7.457031-.726562 10.582031 5.257812 6.03125 12.855469 9.492187 20.84375 9.492187zm-81.667969-149.191406c-14.167969 0-25.695312 11.523438-25.695312 25.691406 0 14.167969 11.527343 25.695313 25.695312 25.695313 14.164063 0 25.691407-11.527344 25.691407-25.695313 0-14.167968-11.523438-25.691406-25.691407-25.691406zm0 36.386719c-5.898437 0-10.695312-4.796875-10.695312-10.695313 0-5.894531 4.796875-10.691406 10.695312-10.691406 5.894531 0 10.691407 4.796875 10.691407 10.691406 0 5.898438-4.796876 10.695313-10.691407 10.695313zm-63.558593-36.386719c-14.167969 0-25.691407 11.523438-25.691407 25.691406 0 14.167969 11.523438 25.695313 25.691407 25.695313 14.167968 0 25.695312-11.527344 25.695312-25.695313 0-14.167968-11.527344-25.691406-25.695312-25.691406zm0 36.386719c-5.894532 0-10.691407-4.796875-10.691407-10.695313 0-5.894531 4.796875-10.691406 10.691407-10.691406 5.898437 0 10.695312 4.796875 10.695312 10.691406 0 5.898438-4.796875 10.695313-10.695312 10.695313zm0 0"/></svg>