<svg class="svg svg--custom" height="25pt" viewBox="0 -29 512.00061 512" width="25pt" xmlns="http://www.w3.org/2000/svg"><path d="m194.648438 312.082031c4.140624 0 7.5-3.355469 7.5-7.5v-11.105469c0-4.140624-3.359376-7.5-7.5-7.5-4.144532 0-7.5 3.359376-7.5 7.5v11.105469c0 4.144531 3.355468 7.5 7.5 7.5zm0 0"/><path d="m324.871094 304.582031v-11.105469c0-4.140624-3.355469-7.5-7.5-7.5-4.140625 0-7.5 3.359376-7.5 7.5v11.105469c0 4.144531 3.359375 7.5 7.5 7.5 4.144531 0 7.5-3.355469 7.5-7.5zm0 0"/><path d="m256.007812 318.011719c8.066407 0 15.648438-3.375 20.792969-9.265625 2.726563-3.117188 2.410157-7.855469-.710937-10.582032-3.117188-2.726562-7.855469-2.40625-10.582032.710938-2.300781 2.628906-5.761718 4.136719-9.5 4.136719-3.738281 0-7.199218-1.507813-9.496093-4.136719-2.726563-3.121094-7.464844-3.4375-10.585938-.710938-3.117187 2.726563-3.4375 7.464844-.710937 10.582032 5.148437 5.886718 12.726562 9.265625 20.792968 9.265625zm0 0"/><path d="m176.410156 222.460938c-21.230468 21.25-32.925781 49.496093-32.925781 79.535156 0 62.042968 50.476563 112.523437 112.523437 112.523437 62.046876 0 112.527344-50.480469 112.527344-112.523437 0-62.046875-50.480468-112.527344-112.527344-112.527344-19.167968 0-38.109374 4.917969-54.765624 14.214844-3.617188 2.019531-4.914063 6.589844-2.894532 10.203125 2.019532 3.617187 6.585938 4.914062 10.203125 2.894531 14.429688-8.054688 30.839844-12.3125 47.457031-12.3125 53.777344 0 97.523438 43.75 97.523438 97.527344 0 53.773437-43.75 97.523437-97.523438 97.523437-53.773437 0-97.523437-43.75-97.523437-97.523437 0-26.035156 10.136719-50.515625 28.535156-68.933594 2.929688-2.929688 2.925781-7.679688-.003906-10.605469-2.929687-2.929687-7.675781-2.925781-10.605469.003907zm0 0"/><path d="m4.558594 275.550781-4.039063 16.945313c-1.160156 4.863281-.359375 9.890625 2.261719 14.152344 2.621094 4.261718 6.742188 7.25 11.609375 8.410156l32.972656 7.859375v79.976562h-5.820312c-17.039063 0-30.898438 13.863281-30.898438 30.898438 0 9.332031 7.589844 16.917969 16.917969 16.917969h90.054688c9.328124 0 16.917968-7.589844 16.917968-16.917969 0-17.035157-13.863281-30.898438-30.902344-30.898438h-5.820312v-67.945312l11.429688 2.726562c16.074218 66.117188 75.773437 115.355469 146.769531 115.355469 30.296875 0 59.53125-8.9375 84.53125-25.855469 3.433593-2.320312 4.332031-6.984375 2.011719-10.414062-2.324219-3.429688-6.984376-4.332031-10.417969-2.007813-22.511719 15.226563-48.835938 23.277344-76.128907 23.277344-66.800781 0-122.511718-48.398438-133.90625-111.976562-3.046874-17.0625-2.824218-34.675782.683594-51.652344 12.789063-61.828125 67.664063-108.445313 133.222656-108.445313 65.5625 0 120.4375 46.617188 133.226563 108.445313 3.742187 18.09375 3.726563 37.300781-.066406 55.539062-5.222657 25.085938-17.460938 48.230469-35.726563 66.976563-2.890625 2.96875-2.832031 7.71875.136719 10.605469 2.964844 2.890624 7.714844 2.832031 10.605469-.136719 19.152344-19.652344 32.335937-43.660157 38.628906-69.722657l11.394531-2.714843v67.945312h-5.820312c-17.039063 0-30.898438 13.859375-30.898438 30.898438 0 9.328125 7.585938 16.917969 16.917969 16.917969h90.050781c9.332031 0 16.917969-7.589844 16.917969-16.917969 0-17.039063-13.859375-30.898438-30.898438-30.898438h-5.820312v-79.976562s32.957031-7.859375 32.972656-7.863281c9.921875-2.367188 16.242188-12.632813 13.875-22.5625l-4.042968-16.945313c-1.753907-7.351563-7.625-12.769531-14.835938-14.078125l-11.734375-49.21875c5.710937-4.355469 8.660156-11.8125 6.886719-19.242188 0 0-4.035156-16.929687-4.039063-16.945312-2.355469-9.871094-12.691406-16.226562-22.5625-13.871094l-68.6875 16.378906v-32.445312h41.730469c19.578125 0 35.507812-15.925781 35.507812-35.507812 0-9.746094-7.933593-17.675782-17.679687-17.675782h-59.558594v-8.535156h59.558594c9.746094 0 17.679687-7.929688 17.679687-17.679688 0-19.578124-15.929687-35.503906-35.507812-35.503906h-41.730469v-5.996094c0-13.910156-11.316406-25.226562-25.226562-25.226562-13.90625 0-25.222657 11.320312-25.222657 25.226562v5.996094h-41.730468c-19.578125 0-35.507813 15.929688-35.507813 35.507813 0 9.746093 7.929688 17.679687 17.675781 17.679687h59.5625v8.535156h-59.5625c-9.746093 0-17.675781 7.929688-17.675781 17.675782 0 19.582031 15.929688 35.507812 35.507813 35.507812h41.730468v31.796875c-24.429687-16.992187-54.085937-26.96875-86.03125-26.96875-31.941406 0-61.597656 9.976563-86.027343 26.96875v-31.796875h41.730469c19.578124 0 35.507812-15.925781 35.507812-35.507812 0-9.746094-7.929688-17.675782-17.675781-17.675782h-59.5625v-8.535156h59.5625c9.746093 0 17.675781-7.933594 17.675781-17.679687 0-19.578125-15.929688-35.507813-35.507812-35.507813h-41.730469v-5.996094c0-13.90625-11.3125-25.22265575-25.222657-25.22265575-13.910156 0-25.226562 11.31640575-25.226562 25.22265575v5.996094h-41.730469c-19.578125 0-35.503906 15.929688-35.503906 35.507813 0 9.746093 7.929687 17.679687 17.675781 17.679687h59.558594v8.535156h-59.558594c-9.746094 0-17.675781 7.929688-17.675781 17.675782 0 19.582031 15.925781 35.507812 35.503906 35.507812h41.730469v32.445313l-68.6875-16.382813c-9.953125-2.375-20.1875 3.925782-22.5625 13.875l-4.039062 16.945313c-1.773438 7.425781 1.175781 14.882812 6.890624 19.242187l-11.738281 49.21875c-7.207031 1.304688-13.082031 6.726563-14.835937 14.078125zm400.972656 5.054688c-.023438-.148438-.578125-3.804688-.878906-5.484375-2.480469-13.886719-6.875-27.242188-13.136719-39.898438l75.152344-17.921875 10.996093 46.101563zm64.945312 137.289062c8.765626 0 15.898438 7.132813 15.898438 15.898438 0 1.058593-.859375 1.917969-1.917969 1.917969h-90.050781c-1.058594 0-1.917969-.859376-1.917969-1.917969 0-8.765625 7.128907-15.898438 15.898438-15.898438zm-20.820312-91.398437v76.398437h-20.449219v-71.519531zm46.804688-27.703125c-.304688.488281-1.003907 1.359375-2.3125 1.671875 0 0-88.359376 21.070312-88.359376 21.058594.402344-3.117188.707032-6.257813.917969-9.417969.363281-5.460938.433594-10.941407.207031-16.410157l81.3125-19.390624c.011719-.003907.023438-.003907.035157-.007813s.023437-.007813.035156-.011719l.082031-.015625c2.015625-.484375 4.019532.789063 4.492188 2.757813l4.039062 16.945312c.3125 1.308594-.148437 2.328125-.449218 2.820313zm-31.804688-122.007813c2.019531-.480468 4.019531.792969 4.488281 2.761719 0 0 4.042969 16.945313 4.042969 16.945313.46875 1.976562-.785156 4.003906-2.742188 4.484374-.054687.011719-.109374.023438-.164062.039063l-86.378906 20.601563c-4.851563-7.703126-10.371094-14.9375-16.511719-21.636719zm-107.617188-151.558594c0-5.636718 4.585938-10.222656 10.222657-10.222656 5.640625 0 10.226562 4.585938 10.226562 10.222656v5.996094h-20.449219zm-74.5625 44.179688c-1.472656 0-2.675781-1.199219-2.675781-2.675781 0-11.308594 9.199219-20.507813 20.507813-20.507813h133.910156c11.304688 0 20.503906 9.199219 20.503906 20.507813 0 1.476562-1.199218 2.675781-2.675781 2.675781zm74.5625 15.003906h20.445313v8.535156h-20.445313zm-56.730468 46.71875c-11.308594 0-20.507813-9.199218-20.507813-20.507812 0-1.476563 1.203125-2.675782 2.675781-2.675782h169.570313c1.472656 0 2.675781 1.199219 2.675781 2.675782 0 11.308594-9.199218 20.507812-20.507812 20.507812zm77.175781 15v36.023438l-20.445313 4.875v-40.898438zm-273.851563 271.765625c8.765626 0 15.898438 7.132813 15.898438 15.898438 0 1.058593-.859375 1.917969-1.917969 1.917969h-90.050781c-1.058594 0-1.917969-.859376-1.917969-1.917969 0-8.765625 7.132813-15.898438 15.898438-15.898438zm-20.820312-15h-20.449219v-76.398437l20.449219 4.878906zm23.417969-81.359375-88.359375-21.070312c-1.984375-.472656-3.234375-2.507813-2.761719-4.492188 0 0 4.03125-16.90625 4.039063-16.945312.578124-2.414063 2.921874-3.132813 5.082031-2.617188l80.875 19.285156c-.015625.355469.0625 17.585938 1.113281 25.734376.003906.035156.007812.070312.011719.105468zm14.273437-86.3125c-6.261718 12.65625-10.65625 26.007813-13.136718 39.894532-.328126 1.824218-.617188 3.652343-.878907 5.488281l-72.132812-17.203125 10.992187-46.105469zm14.027344-209.996094c0-5.636718 4.585938-10.222656 10.226562-10.222656 5.636719 0 10.222657 4.585938 10.222657 10.222656v5.996094h-20.449219zm-74.558594 44.179688c-1.476562 0-2.675781-1.199219-2.675781-2.675781 0-11.308594 9.199219-20.507813 20.503906-20.507813h133.910157c11.308593 0 20.507812 9.199219 20.507812 20.507813 0 1.476562-1.203125 2.675781-2.675781 2.675781zm74.558594 15.003906h20.449219v8.535156h-20.449219zm-56.730469 46.71875c-11.304687 0-20.503906-9.199218-20.503906-20.507812 0-1.476563 1.199219-2.675782 2.675781-2.675782h169.566406c1.476563 0 2.679688 1.199219 2.679688 2.675782 0 11.308594-9.199219 20.507812-20.507812 20.507812zm56.730469 51.023438v-36.023438h20.449219v40.898438zm-95.699219 14.339844s4.035157-16.917969 4.042969-16.945313c.46875-1.972656 2.519531-3.234375 4.488281-2.761719l97.265625 23.195313c-6.140625 6.699219-11.664062 13.933593-16.511718 21.632812l-86.378907-20.597656c-2.011719-.53125-3.410156-2.40625-2.90625-4.523437zm0 0"/></svg>