<svg height="512pt" viewBox="0 0 512 512" width="512pt" xmlns="http://www.w3.org/2000/svg"><path d="m318.40625 261.257812c-1.921875-11.28125-3.3125-19.441406-5.234375-30.71875l-31.414063 31.414063-31.71875-31.714844 31.414063-31.414062c-11.273437-1.921875-19.433594-3.308594-30.710937-5.230469l-241.066407 115.855469c-.6875 4.042969-.941406 5.53125-1.632812 9.578125l21.570312 21.570312h141.785157v141.785156l21.574218 21.570313c4.042969-.6875 5.53125-.941406 9.578125-1.628906zm0 0" fill="#80b6f7"/><path d="m250.039062 230.238281 163.675782-163.675781 31.714844 31.714844-163.675782 163.675781zm0 0" fill="#feef81"/><path d="m503.820312 26.585938-18.410156-17.429688-58.738281 31.285156-12.953125 26.117188 31.714844 31.71875 58.386718-58.386719zm0 0" fill="#80b6f7"/><path d="m186.976562 278.757812 23.320313-23.320312 46.253906 46.257812-23.316406 23.316407zm0 0" fill="#feef81"/><g fill="#f18ba1"><path d="m388.328125 254.972656h70.128906v37.597656h-70.128906zm0 0"/><path d="m388.332031 341.375c0 12.792969-10.371093 23.164062-23.167969 23.164062-12.792968 0-23.164062-10.371093-23.164062-23.164062s10.371094-23.164062 23.164062-23.164062c12.796876 0 23.167969 10.371093 23.167969 23.164062zm0 0"/><path d="m458.457031 341.375c0 12.792969-10.371093 23.164062-23.167969 23.164062-12.792968 0-23.164062-10.371093-23.164062-23.164062s10.371094-23.164062 23.164062-23.164062c12.796876 0 23.167969 10.371093 23.167969 23.164062zm0 0"/></g><path d="m311.757812 261.953125 5.78125-5.78125c-1.503906-8.816406-2.746093-16.121094-4.367187-25.632813l-16.414063 16.414063zm0 0" fill="#4092f2"/><path d="m39.675781 309.449219 233.21875-112.082031c-7.339843-1.25-13.914062-2.371094-22.152343-3.773438l-241.066407 115.855469c-.6875 4.042969-.941406 5.53125-1.632812 9.578125l21.570312 21.570312h30.003907l-21.570313-21.570312c.6875-4.046875.941406-5.535156 1.628906-9.578125zm0 0" fill="#4092f2"/><path d="m201.402344 482.382812v-141.785156h-30v141.785156l21.570312 21.570313c4.046875-.6875 5.53125-.941406 9.578125-1.628906l6.101563-12.691407zm0 0" fill="#4092f2"/><path d="m280.042969 230.238281 148.675781-148.679687-15-15-163.679688 163.679687 31.71875 31.714844 15-15zm0 0" fill="#fee94f"/><path d="m443.71875 66.558594 12.953125-26.117188 39.539063-21.058594-10.800782-10.226562-58.738281 31.285156-12.953125 26.117188 31.714844 31.71875 15.003906-15zm0 0" fill="#4092f2"/><path d="m206.984375 278.757812 13.316406-13.316406-10-10-23.320312 23.316406 46.257812 46.253907 10-10zm0 0" fill="#fee94f"/><path d="m388.328125 254.972656h30.003906v37.597656h-30.003906zm0 0" fill="#ea5172"/><path d="m362 341.375c0-9.210938 5.378906-17.167969 13.164062-20.902344-3.027343-1.449218-6.417968-2.261718-10-2.261718-12.792968 0-23.164062 10.371093-23.164062 23.164062s10.371094 23.164062 23.164062 23.164062c3.582032 0 6.972657-.8125 10-2.261718-7.785156-3.734375-13.164062-11.691406-13.164062-20.902344zm0 0" fill="#ea5172"/><path d="m432.125 341.375c0-9.210938 5.378906-17.167969 13.167969-20.902344-3.027344-1.449218-6.421875-2.261718-10.003907-2.261718-12.792968 0-23.164062 10.371093-23.164062 23.164062s10.371094 23.164062 23.164062 23.164062c3.582032 0 6.976563-.8125 10.003907-2.261718-7.789063-3.734375-13.167969-11.691406-13.167969-20.902344zm0 0" fill="#ea5172"/><path d="m132.238281 317.875h-15v-15h15zm-25 0h-15.003906v-15h15.003906zm0 0" fill="#fff"/><path d="m486.644531 0-19.894531 10.597656-9.90625-9.90625-10.605469 10.605469 6.667969 6.671875-7.734375 4.117188-10.664063-10.664063-10.605468 10.605469 7.429687 7.433594-10.3125 5.488281-2.441406 4.929687-7.539063-7.539062-10.605468 10.605468 11.113281 11.113282-4 8.066406-168.113281 168.113281 42.324218 42.324219 229.5625-229.5625v-19.640625zm-171.4375 175.675781 16.671875-16.671875 21.109375 21.109375-16.671875 16.671875zm10.503907 31.71875-16.675782 16.671875-21.109375-21.109375 16.671875-16.671875zm16.773437-58.996093 16.675781-16.671876 21.109375 21.109376-16.671875 16.671874zm27.28125-27.28125 16.671875-16.671876 21.109375 21.109376-16.671875 16.675781zm-109.117187 109.121093 16.671874-16.671875 21.109376 21.109375-16.671876 16.671875zm157.507812-115.289062-21.109375-21.109375 16.671875-16.671875 21.109375 21.109375zm78.164062-78.164063-50.886718 50.882813-22.601563-22.601563 9.488281-19.136718 51.851563-27.617188 12.144531 11.5v6.972656zm0 0"/><path d="m267.164062 301.695312-56.863281-56.863281-33.925781 33.925781 56.863281 56.863282zm-56.863281-35.648437 35.648438 35.648437-12.710938 12.710938-35.648437-35.648438zm0 0"/><path d="m380.828125 315.027344c-20.355469-12.148438-46.332031 2.617187-46.332031 26.347656 0 16.910156 13.757812 30.667969 30.667968 30.667969 16.910157 0 30.667969-13.757813 30.667969-30.667969v-41.300781h55.125v14.953125c-20.355469-12.148438-46.332031 2.617187-46.332031 26.347656 0 16.910156 13.757812 30.667969 30.664062 30.667969 16.910157 0 30.667969-13.757813 30.667969-30.667969v-93.902344h-85.128906zm-15.664063 42.011718c-8.636718 0-15.664062-7.027343-15.664062-15.664062s7.027344-15.664062 15.664062-15.664062c8.640626 0 15.667969 7.027343 15.667969 15.664062s-7.03125 15.664062-15.667969 15.664062zm70.125 0c-8.636718 0-15.664062-7.027343-15.664062-15.664062s7.027344-15.664062 15.664062-15.664062c8.640626 0 15.667969 7.027343 15.667969 15.664062s-7.027343 15.664062-15.667969 15.664062zm-39.457031-94.566406h55.125v22.597656h-55.125zm0 0"/><path d="m197.472656 495.582031-1.9375.328125-16.632812-16.632812v-146.179688h-146.179688l-16.632812-16.632812.328125-1.9375 237.574219-114.171875-6.496094-13.519531-244.5625 117.53125-2.933594 17.222656 26.507812 26.507812h137.394532v137.394532l26.507812 26.507812 17.222656-2.933594 117.53125-244.5625-13.519531-6.496094zm0 0"/></svg>