<svg class="svg svg--custom" height="25pt" width="25pt" viewBox="0 -2 512.00094 512" ><path d="m511.203125 130.660156c-3.480469-33.105468-18.390625-64.324218-41.980469-87.90625-23.582031-23.582031-54.800781-38.480468-87.902344-41.957031-30.839843-3.246094-62.148437 3.488281-88.773437 18.96875-12.324219-7.859375-28.914063-6.417969-39.667969 4.332031-10.019531 10.019532-11.953125 25.109375-5.808594 37.089844-20.292968 28.371094-29.066406 62.144531-26.707031 95.160156l-158.4375 191.054688c-.007812.007812-.015625.019531-.023437.027344-.019532.023437-.035156.042968-.050782.066406-13.332031 16.125-19.558593 34.566406-18.003906 53.339844.304688 3.671874.925782 7.304687 1.808594 10.882812l-34.976562 34.972656c-14.238282 14.234375-14.238282 37.398438 0 51.632813 7.117187 7.117187 16.464843 10.675781 25.816406 10.675781 9.351562 0 18.703125-3.558594 25.820312-10.675781h.003906l33.558594-33.558594c6.75 2.140625 13.910156 3.351563 21.289063 3.351563 15.433593 0 31.8125-5.242188 47.277343-18.039063.011719-.011719.027344-.023437.042969-.035156.011719-.011719.027344-.023438.039063-.03125l93.804687-77.777344c3.226563-2.675781 3.671875-7.460937.996094-10.6875s-7.460937-3.675781-10.6875-.996094l-88.480469 73.359375-82.128906-82.144531 145.214844-175.105469c5.71875 26.746094 18.9375 52.101563 39.449218 72.609375 20.5 20.507813 45.855469 33.730469 72.597657 39.449219l-56.285157 46.660156c-3.226562 2.675782-3.675781 7.464844-1 10.691406 1.5 1.808594 3.667969 2.746094 5.847657 2.746094 1.707031 0 3.425781-.574218 4.84375-1.75l66.898437-55.457031c3.5.25 7.003906.375 10.511719.375 29.539063 0 59.164063-8.890625 84.496094-26.941406 4.636719 2.539062 9.875 3.894531 15.332031 3.894531 8.539062 0 16.542969-3.304688 22.546875-9.304688 10.960937-10.960937 12.246094-27.984374 3.863281-40.371093 15.40625-26.585938 22.09375-57.828125 18.855469-88.601563zm-459.621094 356.925782c-8.316406 8.316406-21.847656 8.320312-30.164062 0-4.007813-4.003907-6.21875-9.363282-6.21875-15.078126 0-5.71875 2.210937-11.074218 6.21875-15.082031l30.105469-30.097656c.007812.003906.011718.007813.019531.011719 3.535156 6.851562 8.175781 13.238281 13.816406 18.875 4.078125 4.078125 8.742187 7.765625 13.855469 10.910156.546875.378906 1.117187.753906 1.726562 1.109375zm45.609375-38.304688c-.1875-.089844-.371094-.1875-.566406-.265625-.546875-.214844-1.097656-.429687-1.644531-.640625-7.117188-3.09375-13.542969-7.554688-18.886719-12.894531-6.582031-6.578125-11.804688-14.828125-14.71875-24.023438-.058594-.53125-.21875-1.027343-.460938-1.484375-4.046874-14.125-2.617187-30.347656 7.710938-46.136718l79.457031 79.46875c-17.527343 11.4375-35.660156 11.863281-50.890625 5.976562zm361.292969-395.792969c40.621094 40.609375 49.625 103.996094 22.992187 154.078125l-177.074218-177.019531c50.082031-26.648437 113.46875-17.671875 154.082031 22.941406zm19.261719 195.410157c-3.132813 3.132812-7.328125 4.859374-11.808594 4.859374-3.921875 0-7.621094-1.320312-10.582031-3.75-.003907 0-.007813-.003906-.015625-.007812-.417969-.34375-.824219-.710938-1.214844-1.101562l-85.191406-85.179688c-2.96875-2.964844-7.773438-2.964844-10.738282 0-2.964843 2.964844-2.964843 7.769531 0 10.734375l80.410157 80.398437c-21.976563 14.699219-47.269531 21.964844-72.503907 21.960938-33.734374-.003906-67.339843-12.9375-92.667968-38.273438-44.304688-44.300781-50.6875-113.832031-16.339844-165.167968l75.582031 75.566406c2.96875 2.964844 7.773438 2.964844 10.738281.003906 2.964844-2.96875 2.964844-7.773437 0-10.738281l-79.796874-79.78125c-.394532-.398437-.769532-.8125-1.117188-1.238281-.042969-.058594-.089844-.113282-.132812-.171875-5.214844-6.542969-4.804688-16.125 1.25-22.179688 6.507812-6.503906 17.089843-6.503906 23.59375 0l190.535156 190.476563c3.132812 3.132812 4.859375 7.320312 4.859375 11.792968 0 4.476563-1.726563 8.664063-4.859375 11.796876zm0 0"/><path d="m202.851562 269.644531-19.691406 19.6875c-11.234375 11.234375-11.242187 29.539063 0 40.8125 5.429688 5.433594 12.671875 8.425781 20.394532 8.425781 7.71875 0 14.960937-2.992187 20.394531-8.425781l19.691406-19.6875c11.25-11.25 11.25-29.558593 0-40.808593v-.003907c-11.246094-11.242187-29.546875-11.238281-40.789063 0zm30.050782 30.078125-19.691406 19.6875c-2.5625 2.5625-5.992188 3.976563-9.65625 3.976563-3.664063 0-7.09375-1.410157-9.648438-3.964844-5.328125-5.347656-5.335938-14.027344-.007812-19.351563l19.6875-19.6875c2.664062-2.664062 6.160156-3.996093 9.660156-3.996093 3.496094 0 6.992187 1.332031 9.65625 3.996093 5.332031 5.332032 5.332031 14.007813 0 19.339844zm0 0"/></svg>