<svg class="svg svg--custom" height="25pt" width="25pt"  viewBox="0 -86 512 512"><path d="m482 0h-185.875c-5.519531 0-10 4.476562-10 10s4.480469 10 10 10h185.875c5.515625 0 10 4.484375 10 10v280c0 5.515625-4.484375 10-10 10h-36v-149.875c0-5.523438-4.476562-10-10-10h-360c-5.523438 0-10 4.476562-10 10v149.875h-36c-5.515625 0-10-4.484375-10-10v-280c0-5.515625 4.484375-10 10-10h186.132812c5.523438 0 10-4.476562 10-10s-4.476562-10-10-10h-186.132812c-16.542969 0-30 13.457031-30 30v280c0 16.542969 13.457031 30 30 30h452c16.542969 0 30-13.457031 30-30v-280c0-16.542969-13.457031-30-30-30zm-96 180.125v52.003906h-20v-52.003906zm-120 0v52.003906h-20v-52.003906zm-120 0v52.003906h-20v-52.003906zm-60 0h20v62.003906c0 5.519532 4.476562 10 10 10h10v67.871094h-40zm60 72.003906h10c5.523438 0 10-4.480468 10-10v-62.003906h20v139.875h-40zm60-72.003906h20v62.003906c0 5.519532 4.476562 10 10 10h10v67.871094h-40zm60 72.003906h10c5.523438 0 10-4.480468 10-10v-62.003906h20v139.875h-40zm60-72.003906h20v62.003906c0 5.519532 4.476562 10 10 10h10v67.871094h-40zm60 139.875v-67.871094h10c5.523438 0 10-4.480468 10-10v-62.003906h20v139.875zm0 0"/><path d="m186.128906 92v38c0 5.523438 4.476563 10 10 10h120c5.519532 0 10-4.476562 10-10v-38c0-5.523438-4.480468-10-10-10h-120c-5.523437 0-10 4.476562-10 10zm20 10h100v18h-100zm0 0"/><path d="m256 20c2.628906 0 5.210938-1.070312 7.070312-2.929688 1.859376-1.859374 2.929688-4.441406 2.929688-7.070312s-1.070312-5.210938-2.929688-7.070312c-1.859374-1.859376-4.441406-2.929688-7.070312-2.929688s-5.210938 1.070312-7.070312 2.929688c-1.859376 1.859374-2.929688 4.441406-2.929688 7.070312s1.070312 5.210938 2.929688 7.070312c1.859374 1.859376 4.441406 2.929688 7.070312 2.929688zm0 0"/><path d="m66 90c0 27.570312 22.429688 50 50 50s50-22.429688 50-50-22.429688-50-50-50-50 22.429688-50 50zm80 0c0 16.542969-13.457031 30-30 30s-30-13.457031-30-30 13.457031-30 30-30 30 13.457031 30 30zm0 0"/><path d="m108.929688 82.929688c-1.859376 1.859374-2.929688 4.441406-2.929688 7.070312s1.070312 5.210938 2.929688 7.070312c1.859374 1.859376 4.441406 2.929688 7.070312 2.929688s5.210938-1.070312 7.070312-2.929688c1.859376-1.859374 2.929688-4.441406 2.929688-7.070312s-1.070312-5.210938-2.929688-7.070312c-1.859374-1.859376-4.441406-2.929688-7.070312-2.929688s-5.210938 1.070312-7.070312 2.929688zm0 0"/><path d="m396 140c27.570312 0 50-22.429688 50-50s-22.429688-50-50-50-50 22.429688-50 50 22.429688 50 50 50zm0-80c16.542969 0 30 13.457031 30 30s-13.457031 30-30 30-30-13.457031-30-30 13.457031-30 30-30zm0 0"/><path d="m396 100c2.628906 0 5.210938-1.070312 7.070312-2.929688 1.859376-1.859374 2.929688-4.441406 2.929688-7.070312s-1.070312-5.210938-2.929688-7.070312c-1.859374-1.859376-4.441406-2.929688-7.070312-2.929688s-5.210938 1.070312-7.070312 2.929688c-1.859376 1.859374-2.929688 4.441406-2.929688 7.070312s1.070312 5.210938 2.929688 7.070312c1.859374 1.859376 4.441406 2.929688 7.070312 2.929688zm0 0"/><path d="m196 60c2.628906 0 5.210938-1.070312 7.070312-2.929688 1.859376-1.859374 2.929688-4.441406 2.929688-7.070312s-1.070312-5.210938-2.929688-7.070312c-1.859374-1.859376-4.441406-2.929688-7.070312-2.929688s-5.210938 1.070312-7.070312 2.929688c-1.859376 1.859374-2.929688 4.441406-2.929688 7.070312s1.070312 5.210938 2.929688 7.070312c1.859374 1.859376 4.441406 2.929688 7.070312 2.929688zm0 0"/><path d="m228.96875 57.070312c1.859375 1.859376 4.441406 2.929688 7.070312 2.929688 2.632813 0 5.210938-1.070312 7.070313-2.929688 1.859375-1.859374 2.929687-4.441406 2.929687-7.070312s-1.070312-5.210938-2.929687-7.070312c-1.859375-1.859376-4.4375-2.929688-7.070313-2.929688-2.628906 0-5.210937 1.070312-7.070312 2.929688-1.859375 1.859374-2.929688 4.429687-2.929688 7.070312s1.070313 5.210938 2.929688 7.070312zm0 0"/><path d="m276.089844 60c2.621094 0 5.199218-1.070312 7.070312-2.929688 1.859375-1.859374 2.929688-4.441406 2.929688-7.070312s-1.070313-5.210938-2.929688-7.070312c-1.871094-1.859376-4.441406-2.929688-7.070312-2.929688-2.640625 0-5.21875 1.070312-7.078125 2.929688-1.863281 1.859374-2.933594 4.441406-2.933594 7.070312s1.070313 5.210938 2.933594 7.070312c1.867187 1.859376 4.4375 2.929688 7.078125 2.929688zm0 0"/><path d="m323.199219 57.070312c1.859375-1.859374 2.929687-4.429687 2.929687-7.070312 0-2.628906-1.070312-5.210938-2.929687-7.070312-1.859375-1.859376-4.4375-2.929688-7.070313-2.929688-2.640625 0-5.21875 1.070312-7.070312 2.929688-1.867188 1.859374-2.929688 4.441406-2.929688 7.070312 0 2.640625 1.0625 5.210938 2.929688 7.070312 1.851562 1.859376 4.433594 2.929688 7.070312 2.929688 2.632813 0 5.210938-1.070312 7.070313-2.929688zm0 0"/></svg>